<svg xmlns="http://www.w3.org/2000/svg" xmlns:xlink="http://www.w3.org/1999/xlink" viewBox="0 0 252 252" width="100%" height="100%" >

       <g  >

          <g id="polyanno-logo-white-background">
           <rect x="0" fill="#fff" id="polyanno-logo-canvas_background" rx="75" ry="75" height="252" width="252" y="0"/>
          </g>

          <g id="svg_2">
           <g id="polyanno-Anno-SVG-scrawl">

            <path id="polyanno-Anno-SVG-pt4" class="polyanno-Anno-SVG" stroke="#EC0028" d="m103.767395,171.647003c0,-1.764999 1.11554,-18.548996 12.038025,-45.882996c15.524109,-38.850906 29.400208,-66.703709 36.112976,-86.471508c3.251404,-9.572979 3.399231,-20.747599 6.018982,-20.2943c1.171326,0.2027 1.204468,1.764711 1.204468,2.64711c0,0.882401 0.585083,2.4916 1.203369,4.411791c0.55304,1.717499 0.372131,5.255899 1.203369,10.5884c2.191711,14.053799 1.958008,31.778999 3.612244,56.4711c1.891907,28.256409 7.139648,52.954399 13.241333,74.118401c3.56366,12.360992 7.222412,21.177002 10.833557,28.235992l1.204468,1.764023l1.20343,0.88298l0,0.882019" stroke-width="7.5" fill="none"/>
            <path id="polyanno-Anno-SVG-pt5" class="polyanno-Anno-SVG" stroke="#EC0028" d="m107.902771,127c0,-2 13.538391,-10.797684 26.879761,-17c22.919312,-10.655037 41.353455,-18 51.691833,-23l7.236816,-2l4.135437,-2l1.033813,0" fill-opacity="null" stroke-opacity="null" stroke-width="7.5" fill="none"/>

            <path id="polyanno-Anno-SVG-pt1" class="polyanno-Anno-SVG" stroke="#333F48" d="m47,180.620972c1.019775,-2.6689 4.616425,-9.521072 10.197998,-18.682312c7.922546,-13.003525 14.84433,-27.707672 19.376251,-39.143936c4.640869,-11.711136 6.626251,-19.50592 7.138641,-24.020126c0.301483,-2.655907 0,-0.889641 0,2.6689c0,4.448174 0.415436,10.871483 -2.039612,20.461594c-2.601563,10.162582 -7.334106,22.203918 -11.217804,38.254288c-3.221954,13.315384 -7.397766,26.630798 -11.217865,40.033539c-3.28302,11.518494 -3.712769,18.73645 -5.098999,24.909805c-0.808289,3.599609 -0.027283,5.133377 -1.019806,5.337769c-2.21936,0.457031 -2.845795,-9.853989 -1.019806,-28.468307c2.558838,-26.084686 12.445953,-47.407913 22.435669,-70.281097c4.720062,-10.807434 10.634735,-19.948593 15.297058,-24.909775c2.743042,-2.918915 5.09903,-5.337814 8.158386,-5.337814c5.09906,0 8.953857,-0.910851 13.257446,2.6689c2.661133,2.213554 6.28244,7.084435 7.138641,10.675621c1.263153,5.29805 3.066254,12.682434 1.019806,19.571968c-2.633728,8.866516 -8.61377,15.65863 -16.316833,21.351212c-6.693756,4.946671 -13.20224,8.138901 -21.415894,10.675613c-6.079987,1.877777 -11.217804,2.668915 -15.297028,4.448181l-2.039612,0" fill-opacity="null" stroke-opacity="null" stroke-width="7.5" fill="none"/>

           </g>
          </g>

          <g id="polyanno-logo-mock-leaflet-layer">
           <path stroke="#f06eaa" id="polyanno-logo-leaflet-draw-mock" d="m39,32 l105,0 l0,107 l-105,0 l0,-107 z" class="leaflet-clickable" fill-opacity="0.2" fill="#f06eaa" stroke-width="4" stroke-opacity="0.5" fill-rule="evenodd" stroke-linecap="round" stroke-linejoin="round"/>
          </g>

          <animate id="polyanno-logo-leaflet-draw-mock-animate" xlink:href="#polyanno-logo-leaflet-draw-mock" attributeName="d" values=" m239,32 l0,0 l0,0 l0,0 l0,0 z; m239,32 l105,0 l0,107 l-105,0 l0,-107 z;" dur="1s" begin="indefinite"/>

          <path fill="#fff" stroke="null" stroke-width="null" opacity="0.5" d="m561.470337,127.083488" id="svg_6"/>

       </g>
      </svg>